<?xml version="1.0" encoding="UTF-8"?>
<svg width="15.098" height="13.093" version="1.1" viewBox="0 0 15.098 13.093" xmlns="http://www.w3.org/2000/svg" xmlns:cc="http://creativecommons.org/ns#" xmlns:dc="http://purl.org/dc/elements/1.1/" xmlns:rdf="http://www.w3.org/1999/02/22-rdf-syntax-ns#">
 <metadata>
  <rdf:RDF>
   <cc:Work rdf:about="">
    <dc:format>image/svg+xml</dc:format>
    <dc:type rdf:resource="http://purl.org/dc/dcmitype/StillImage"/>
    <dc:title/>
   </cc:Work>
  </rdf:RDF>
 </metadata>
 <path d="m13.989 0.30055c-3.9444 0.45955-7.9033 0.89608-11.85 1.3613-0.3561 0.47577-0.64388 1.006-0.97461 1.502-0.23006 0.23976-0.034424 0.56394-0.052734 0.84375 0.046547 0.14657-0.02597 0.69176 0.16602 0.35156 0.18281-0.2017 0.009032-0.49211 0.029297-0.73438-0.096155-0.3062 0.21935-0.52814 0.33789-0.79102l0.60938-0.96289 11.645-1.334c0.16837 1.6929 0.32576 3.3464 0.49219 5.0391 0.05757 0.58683 0.11434 1.1749 0.17188 1.7617-0.21955-0.02104-0.55675 0.07219-0.35938 0.26562 0.18307-0.06243 0.46944 0.03066 0.59375-0.12891-0.13698-1.6717-0.32142-3.3468-0.47852-5.0195-0.078693-0.70054-0.11852-1.4103-0.2207-2.1055-0.022691-0.034155-0.06609-0.052348-0.10938-0.048828zm-0.78906 4.4434c-0.14428 0.00597-0.3041 0.037649-0.42383 0.011719h-10.586c-0.35958 0.28421-0.64034 0.67265-0.96875 0.99805-0.30088 0.34661-0.65585 0.66012-0.91992 1.0293 0.00954 1.317-0.017663 2.6384 0.015625 3.9531 0.60552 0.67922 1.2129 1.3564 1.8164 2.0371 1.0416 0.04033 2.0977 0.0041 3.1445 0.01563 2.7269-0.0066 5.457 0.01334 8.1816-0.0098 0.1387-0.25983 0.03407-0.59174 0.06641-0.88281v-7.0156c-0.053958-0.1241-0.1819-0.14269-0.32618-0.13672zm-10.957 0.26172h11.063v7.5332h-11.053l-1.7305-1.8965v-3.8184zm0.2168 3.1035c-0.79449 0.0062-1.0184 1.138-0.35938 1.4883 0.50476 0.31383 1.1577-0.17329 1.1113-0.69531h-0.75195c0.21461-3.46e-4 0.42993-0.0016 0.64453-2e-3 0.3069-0.17971-0.23546-0.86411-0.64453-0.79102z" color="#000000" color-rendering="auto" dominant-baseline="auto" image-rendering="auto" shape-rendering="auto" solid-color="#000000" stroke="#000" stroke-linecap="round" stroke-linejoin="round" stroke-width=".6" style="font-feature-settings:normal;font-variant-alternates:normal;font-variant-caps:normal;font-variant-ligatures:normal;font-variant-numeric:normal;font-variant-position:normal;isolation:auto;mix-blend-mode:normal;shape-padding:0;text-decoration-color:#000000;text-decoration-line:none;text-decoration-style:solid;text-indent:0;text-orientation:mixed;text-transform:none;white-space:normal"/>
</svg>
