<?xml version="1.0" encoding="UTF-8" standalone="no"?>
<!-- Created with Inkscape (http://www.inkscape.org/) -->

<svg
   xmlns:dc="http://purl.org/dc/elements/1.1/"
   xmlns:cc="http://creativecommons.org/ns#"
   xmlns:rdf="http://www.w3.org/1999/02/22-rdf-syntax-ns#"
   xmlns:svg="http://www.w3.org/2000/svg"
   xmlns="http://www.w3.org/2000/svg"
   xmlns:sodipodi="http://sodipodi.sourceforge.net/DTD/sodipodi-0.dtd"
   xmlns:inkscape="http://www.inkscape.org/namespaces/inkscape"
   width="9.7172365"
   height="15.041029"
   viewBox="0 0 9.7172365 15.041029"
   version="1.1"
   id="SVGRoot"
   sodipodi:docname="trash.svg"
   inkscape:version="0.92.3 (2405546, 2018-03-11)">
  <sodipodi:namedview
     id="base"
     pagecolor="#ffffff"
     bordercolor="#666666"
     borderopacity="1.0"
     inkscape:pageopacity="0.0"
     inkscape:pageshadow="2"
     inkscape:zoom="11.313709"
     inkscape:cx="17.681533"
     inkscape:cy="8.4024592"
     inkscape:document-units="px"
     inkscape:current-layer="layer1"
     showgrid="false"
     inkscape:window-width="1366"
     inkscape:window-height="705"
     inkscape:window-x="-8"
     inkscape:window-y="-8"
     inkscape:window-maximized="1"
     inkscape:grid-bbox="true"
     inkscape:snap-bbox="true"
     inkscape:bbox-nodes="true"
     inkscape:snap-others="true"
     fit-margin-top="0"
     fit-margin-left="0"
     fit-margin-right="0"
     fit-margin-bottom="0" />
  <defs
     id="defs5352" />
  <metadata
     id="metadata5355">
    <rdf:RDF>
      <cc:Work
         rdf:about="">
        <dc:format>image/svg+xml</dc:format>
        <dc:type
           rdf:resource="http://purl.org/dc/dcmitype/StillImage" />
        <dc:title></dc:title>
      </cc:Work>
    </rdf:RDF>
  </metadata>
  <g
     id="layer1"
     inkscape:groupmode="layer"
     inkscape:label="Calque 1"
     transform="translate(-3.1691979,-0.59357396)">
    <path
       id="path1454"
       style="fill:none;stroke:#000000;stroke-width:0.59433728;stroke-linecap:round;stroke-linejoin:round;stroke-miterlimit:4;stroke-dasharray:none;stroke-opacity:1"
       d="m 6.890871,1.6334252 2.2607431,0.029034 m 3.4334199,-0.035487 v 1.3001423 m -9.1144359,0 V 1.6269722 m 0,0 c 0.7595363,-0.01499 1.5190727,-0.026566 2.2786089,-0.034479 0.3797683,-0.00396 0.7168125,-0.69622897 1.0965806,-0.69832218 0.3797682,-0.002093 0.7595363,-0.003239 1.1393044,-0.003407 0.3797683,-1.6726e-4 0.7595365,6.4413e-4 1.1393046,0.002465 0.3797681,0.001822 0.8022596,0.69388488 1.1820284,0.69775768 0.759536,0.00775 1.519073,0.019656 2.278609,0.035984 M 5.5,4.9507579 5.5625,13.867864 M 10.625,4.8303882 10.5625,13.836614 M 3.4705981,2.9271144 c 3.0381453,-0.059958 6.0762906,-0.06531 9.1144359,0 M 3.4994974,3.7462862 h 9.0581476 l 0.01582,10.6045508 -0.942424,0.975087 -0.700927,0.01151 -2.8840295,-0.0046 -2.5304758,0.0046 -1.05826,-0.01206 -0.9805949,-1.148628 z"
       inkscape:connector-curvature="0" />
  </g>
</svg>
